<svg width="376" height="376" viewBox="0 0 376 376" fill="none" xmlns="http://www.w3.org/2000/svg">
<mask id="path-1-inside-1_40_1642" fill="white">
<path fill-rule="evenodd" clip-rule="evenodd" d="M0 95.75C0 95.1977 0.447715 94.75 1 94.75H93.75H187.5V188.5H93.75V282.25H187.5V375C187.5 375.552 187.052 376 186.5 376H93.75H1C0.447715 376 0 375.552 0 375V282.25V188.5V95.75Z"/>
</mask>
<path d="M187.5 94.75H188.5V93.75H187.5V94.75ZM187.5 188.5V189.5H188.5V188.5H187.5ZM93.75 188.5V187.5H92.75V188.5H93.75ZM93.75 282.25H92.75V283.25H93.75V282.25ZM187.5 282.25H188.5V281.25H187.5V282.25ZM1 93.75C-0.10457 93.75 -1 94.6454 -1 95.75H1V93.75ZM93.75 93.75H1V95.75H93.75V93.75ZM187.5 93.75H93.75V95.75H187.5V93.75ZM188.5 188.5V94.75H186.5V188.5H188.5ZM93.75 189.5H187.5V187.5H93.75V189.5ZM94.75 282.25V188.5H92.75V282.25H94.75ZM93.75 283.25H187.5V281.25H93.75V283.25ZM186.5 282.25V375H188.5V282.25H186.5ZM186.5 375V377C187.605 377 188.5 376.105 188.5 375H186.5ZM186.5 375H93.75V377H186.5V375ZM1 377H93.75V375H1V377ZM-1 375C-1 376.105 -0.104574 377 1 377V375H1H-1ZM-1 282.25V375H1V282.25H-1ZM-1 188.5V282.25H1V188.5H-1ZM-1 95.75V188.5H1V95.75H-1Z" fill="#00C2FF" mask="url(#path-1-inside-1_40_1642)"/>
<mask id="path-3-outside-2_40_1642" maskUnits="userSpaceOnUse" x="186.5" y="0" width="190" height="284" fill="black">
<rect fill="white" x="186.5" width="190" height="284"/>
<path fill-rule="evenodd" clip-rule="evenodd" d="M187.5 1H281.25H375V94.75V188.5V282.25H281.25H187.5V188.5H281.25V94.75H187.5V1Z"/>
</mask>
<path d="M187.5 1V0H186.5V1H187.5ZM375 1H376V0H375V1ZM375 282.25V283.25H376V282.25H375ZM187.5 282.25H186.5V283.25H187.5V282.25ZM187.5 188.5V187.5H186.5V188.5H187.5ZM281.25 188.5V189.5H282.25V188.5H281.25ZM281.25 94.75H282.25V93.75H281.25V94.75ZM187.5 94.75H186.5V95.75H187.5V94.75ZM281.25 0H187.5V2H281.25V0ZM375 0H281.25V2H375V0ZM376 94.75V1H374V94.75H376ZM376 188.5V94.75H374V188.5H376ZM376 282.25V188.5H374V282.25H376ZM281.25 283.25H375V281.25H281.25V283.25ZM281.25 281.25H187.5V283.25H281.25V281.25ZM188.5 282.25V188.5H186.5V282.25H188.5ZM187.5 189.5H281.25V187.5H187.5V189.5ZM280.25 94.75V188.5H282.25V94.75H280.25ZM187.5 95.75H281.25V93.75H187.5V95.75ZM186.5 1V94.75H188.5V1H186.5Z" fill="#00C2FF" mask="url(#path-3-outside-2_40_1642)"/>
</svg>
