<svg width="70" height="17" viewBox="0 0 70 17" fill="none" xmlns="http://www.w3.org/2000/svg">
<path d="M67.2551 3.7654C67.2551 4.07039 67.1789 4.79473 67.1789 5.09972C67.1789 6.47217 67.7126 7.00589 68.78 7.08214C69.5044 7.15839 70 7.57775 70 8.26397C70 8.91207 69.5425 9.36955 68.78 9.44579C67.7507 9.52204 67.1789 10.0176 67.1789 11.4282C67.1789 11.7713 67.2551 12.4957 67.2551 12.7625C67.2551 14.6306 66.3783 15.8124 63.4428 16.4986C62.6803 16.6893 62.0703 16.1936 62.0703 15.4693C62.0703 14.8974 62.4897 14.5543 62.7565 14.4781C64.2433 13.9444 64.5102 13.4106 64.5102 12.3432C64.5102 11.9619 64.434 11.3138 64.434 10.8945C64.434 9.48392 65.1583 8.72145 66.4545 8.26397C65.1583 7.84461 64.434 7.08214 64.434 5.63345C64.434 5.21409 64.5102 4.56599 64.5102 4.18476C64.5102 3.1173 64.2433 2.58357 62.7565 2.04984C62.4515 1.93547 62.0703 1.63049 62.0703 1.05863C62.0703 0.334289 62.6803 -0.123193 63.4428 0.0293008C66.3783 0.715523 67.2551 1.89735 67.2551 3.7654Z" fill="#00C2FF"/>
<path d="M2.55061 12.8156C2.55061 12.5099 2.62146 11.7838 2.62146 11.4781C2.62146 10.1024 2.12551 9.56741 1.1336 9.49098C0.460527 9.41455 0 8.9942 0 8.30635C0 7.65671 0.425102 7.19814 1.1336 7.12171C2.09008 7.04528 2.62146 6.5485 2.62146 5.13458C2.62146 4.79066 2.55061 4.06459 2.55061 3.79709C2.55061 1.9246 3.36539 0.739968 6.09312 0.0521154C6.80163 -0.138955 7.36843 0.357828 7.36843 1.08389C7.36843 1.6571 6.97875 2.00103 6.73078 2.07746C5.34919 2.61246 5.10122 3.14745 5.10122 4.21744C5.10122 4.59958 5.17207 5.24922 5.17207 5.66958C5.17207 7.0835 4.49899 7.84778 3.29454 8.30635C4.49899 8.7267 5.17207 9.49098 5.17207 10.9431C5.17207 11.3635 5.10122 12.0131 5.10122 12.3952C5.10122 13.4652 5.34919 14.0002 6.73078 14.5352C7.01418 14.6499 7.36843 14.9556 7.36843 15.5288C7.36843 16.2549 6.80163 16.7134 6.09312 16.5606C3.36539 15.8727 2.55061 14.6881 2.55061 12.8156Z" fill="#00C2FF"/>
<path d="M15.2749 11.9711H15.4504L18.1713 2.14075H20.4534V3.10623L16.9425 14.4287H13.7828L10.2719 3.10623V2.14075H12.554L15.2749 11.9711ZM24.1397 2.14075V5.47605H27.475C28.9671 5.47605 30.0204 6.5293 30.0204 7.84586V12.0589C30.0204 13.3754 28.9671 14.4287 27.475 14.4287H21.9455V2.14075H24.1397ZM27.8261 11.7078V8.19695C27.8261 7.67032 27.475 7.31924 26.8606 7.31924H24.1397V12.5855H26.8606C27.475 12.5855 27.8261 12.2344 27.8261 11.7078ZM32.0391 14.4287V2.14075H38.2709C40.0263 2.14075 41.1673 3.28177 41.1673 4.86165V11.7078C41.1673 13.2877 40.0263 14.4287 38.2709 14.4287H32.0391ZM38.8853 11.3567V5.21273C38.8853 4.59834 38.3586 4.07171 37.6565 4.07171H34.3212V12.4977H37.6565C38.3586 12.4977 38.8853 11.9711 38.8853 11.3567ZM50.7344 7.67032V10.8301H45.0292V11.7078C45.0292 12.2344 45.3803 12.5855 45.9947 12.5855H50.3833V14.4287H45.3803C43.8882 14.4287 42.835 13.3754 42.835 12.0589V7.67032C42.835 6.35376 43.8882 5.3005 45.3803 5.3005H48.189C49.6811 5.3005 50.7344 6.35376 50.7344 7.67032ZM45.0292 8.02141V8.98689H48.5401V8.02141C48.5401 7.49478 48.189 7.1437 47.5746 7.1437H45.9947C45.3803 7.1437 45.0292 7.49478 45.0292 8.02141ZM54.6841 14.4287L51.7876 6.35376V5.47605H53.9819L55.9129 12.1466H56.0884L58.0194 5.47605H60.2136V6.35376L57.3172 14.4287H54.6841Z" fill="#00C2FF"/>
</svg>
